<?xml version="1.0" encoding="UTF-8" standalone="no"?>
<!DOCTYPE svg PUBLIC "-//W3C//DTD SVG 1.1//EN"
 "http://www.w3.org/Graphics/SVG/1.1/DTD/svg11.dtd">
<!-- Generated by graphviz version 2.42.3 (0)
 -->
<!-- Title: Profile Pages: 1 -->
<svg width="549pt" height="620pt"
 viewBox="0.00 0.00 548.97 620.00" xmlns="http://www.w3.org/2000/svg" xmlns:xlink="http://www.w3.org/1999/xlink">
<g id="graph0" class="graph" transform="scale(1 1) rotate(0) translate(4 616)">
<title>Profile</title>
<polygon fill="white" stroke="transparent" points="-4,4 -4,-616 544.97,-616 544.97,4 -4,4"/>
<!-- node1 -->
<g id="node1" class="node">
<title>node1</title>
<ellipse fill="#ffffff" stroke="black" cx="338.84" cy="-594" rx="202.26" ry="18"/>
<text text-anchor="middle" x="338.84" y="-590.3" font-family="Times,serif" font-size="14.00">(checked&#45;procedure&#45;check&#45;and&#45;extract ...)</text>
</g>
<!-- node2 -->
<g id="node2" class="node">
<title>node2</title>
<ellipse fill="#ffffff" stroke="black" cx="338.84" cy="-522" rx="89.08" ry="18"/>
<text text-anchor="middle" x="338.84" y="-518.3" font-family="Times,serif" font-size="14.00">(profile&#45;thunk ...)</text>
</g>
<!-- node1&#45;&gt;node2 -->
<g id="edge1" class="edge">
<title>node1&#45;&gt;node2</title>
<path fill="none" stroke="black" d="M338.84,-575.7C338.84,-567.98 338.84,-558.71 338.84,-550.11"/>
<polygon fill="black" stroke="black" points="342.34,-550.1 338.84,-540.1 335.34,-550.1 342.34,-550.1"/>
</g>
<!-- node3 -->
<g id="node3" class="node">
<title>node3</title>
<ellipse fill="#ffffff" stroke="black" cx="338.84" cy="-450" rx="61.99" ry="18"/>
<text text-anchor="middle" x="338.84" y="-446.3" font-family="Times,serif" font-size="14.00">(the&#45;file ...)</text>
</g>
<!-- node2&#45;&gt;node3 -->
<g id="edge2" class="edge">
<title>node2&#45;&gt;node3</title>
<path fill="none" stroke="black" d="M338.84,-503.7C338.84,-495.98 338.84,-486.71 338.84,-478.11"/>
<polygon fill="black" stroke="black" points="342.34,-478.1 338.84,-468.1 335.34,-478.1 342.34,-478.1"/>
</g>
<!-- node4 -->
<g id="node4" class="node">
<title>node4</title>
<ellipse fill="#ffffff" stroke="black" cx="338.84" cy="-378" rx="59.29" ry="18"/>
<text text-anchor="middle" x="338.84" y="-374.3" font-family="Times,serif" font-size="14.00">(temp7 ...)</text>
</g>
<!-- node3&#45;&gt;node4 -->
<g id="edge3" class="edge">
<title>node3&#45;&gt;node4</title>
<path fill="none" stroke="black" d="M338.84,-431.7C338.84,-423.98 338.84,-414.71 338.84,-406.11"/>
<polygon fill="black" stroke="black" points="342.34,-406.1 338.84,-396.1 335.34,-406.1 342.34,-406.1"/>
</g>
<!-- node5 -->
<g id="node5" class="node">
<title>node5</title>
<ellipse fill="#ffffff" stroke="black" cx="338.84" cy="-306" rx="91.78" ry="18"/>
<text text-anchor="middle" x="338.84" y="-302.3" font-family="Times,serif" font-size="14.00">(bytes&#45;append ...)</text>
</g>
<!-- node4&#45;&gt;node5 -->
<g id="edge4" class="edge">
<title>node4&#45;&gt;node5</title>
<path fill="none" stroke="black" d="M338.84,-359.7C338.84,-351.98 338.84,-342.71 338.84,-334.11"/>
<polygon fill="black" stroke="black" points="342.34,-334.1 338.84,-324.1 335.34,-334.1 342.34,-334.1"/>
</g>
<!-- node5&#45;&gt;node5 -->
<g id="edge5" class="edge">
<title>node5&#45;&gt;node5</title>
<path fill="none" stroke="black" d="M400.28,-319.36C426.31,-320.37 448.48,-315.91 448.48,-306 448.48,-297.4 431.8,-292.91 410.4,-292.53"/>
<polygon fill="black" stroke="black" points="410.24,-289.03 400.28,-292.64 410.32,-296.03 410.24,-289.03"/>
</g>
<!-- node6 -->
<g id="node6" class="node">
<title>node6</title>
<ellipse fill="#ffffff" stroke="black" cx="135.84" cy="-162" rx="135.68" ry="18"/>
<text text-anchor="middle" x="135.84" y="-158.3" font-family="Times,serif" font-size="14.00">(integer&#45;&gt;integer&#45;bytes ...)</text>
</g>
<!-- node5&#45;&gt;node6 -->
<g id="edge6" class="edge">
<title>node5&#45;&gt;node6</title>
<path fill="none" stroke="black" d="M315.15,-288.43C278.83,-263.02 209.28,-214.37 168.29,-185.7"/>
<polygon fill="black" stroke="black" points="170.2,-182.77 160,-179.9 166.19,-188.5 170.2,-182.77"/>
</g>
<!-- node7 -->
<g id="node7" class="node">
<title>node7</title>
<ellipse fill="#ffffff" stroke="black" cx="338.84" cy="-234" rx="51.19" ry="18"/>
<text text-anchor="middle" x="338.84" y="-230.3" font-family="Times,serif" font-size="14.00">(send ...)</text>
</g>
<!-- node5&#45;&gt;node7 -->
<g id="edge7" class="edge">
<title>node5&#45;&gt;node7</title>
<path fill="none" stroke="black" d="M332.92,-287.7C332.13,-279.98 331.9,-270.71 332.24,-262.11"/>
<polygon fill="black" stroke="black" points="335.74,-262.32 332.94,-252.1 328.75,-261.84 335.74,-262.32"/>
</g>
<!-- node10 -->
<g id="node8" class="node">
<title>node10</title>
<ellipse fill="#ff0000" stroke="black" cx="218.84" cy="-18" rx="48.19" ry="18"/>
<text text-anchor="middle" x="218.84" y="-14.3" font-family="Times,serif" font-size="14.00">(eval ...)</text>
</g>
<!-- node6&#45;&gt;node10 -->
<g id="edge8" class="edge">
<title>node6&#45;&gt;node10</title>
<path fill="none" stroke="black" d="M145.85,-143.87C160.32,-119.11 187.19,-73.14 203.98,-44.42"/>
<polygon fill="black" stroke="black" points="207.02,-46.15 209.05,-35.75 200.98,-42.62 207.02,-46.15"/>
</g>
<!-- node7&#45;&gt;node5 -->
<g id="edge9" class="edge">
<title>node7&#45;&gt;node5</title>
<path fill="none" stroke="black" d="M344.73,-252.1C345.54,-259.79 345.77,-269.05 345.44,-277.67"/>
<polygon fill="black" stroke="black" points="341.95,-277.48 344.75,-287.7 348.93,-277.96 341.95,-277.48"/>
</g>
<!-- node8 -->
<g id="node9" class="node">
<title>node8</title>
<ellipse fill="#ffffff" stroke="black" cx="380.84" cy="-162" rx="91.78" ry="18"/>
<text text-anchor="middle" x="380.84" y="-158.3" font-family="Times,serif" font-size="14.00">(bytes&#45;append ...)</text>
</g>
<!-- node7&#45;&gt;node8 -->
<g id="edge10" class="edge">
<title>node7&#45;&gt;node8</title>
<path fill="none" stroke="black" d="M349,-216.05C353.88,-207.92 359.84,-198 365.27,-188.94"/>
<polygon fill="black" stroke="black" points="368.33,-190.65 370.47,-180.28 362.33,-187.05 368.33,-190.65"/>
</g>
<!-- node9 -->
<g id="node10" class="node">
<title>node9</title>
<ellipse fill="#ffffff" stroke="black" cx="366.84" cy="-90" rx="71.49" ry="18"/>
<text text-anchor="middle" x="366.84" y="-86.3" font-family="Times,serif" font-size="14.00">(unsigned ...)</text>
</g>
<!-- node8&#45;&gt;node9 -->
<g id="edge11" class="edge">
<title>node8&#45;&gt;node9</title>
<path fill="none" stroke="black" d="M377.38,-143.7C375.83,-135.98 373.98,-126.71 372.26,-118.11"/>
<polygon fill="black" stroke="black" points="375.65,-117.22 370.26,-108.1 368.79,-118.6 375.65,-117.22"/>
</g>
<!-- node9&#45;&gt;node10 -->
<g id="edge12" class="edge">
<title>node9&#45;&gt;node10</title>
<path fill="none" stroke="black" d="M334.72,-73.81C311.76,-62.95 280.77,-48.29 256.61,-36.87"/>
<polygon fill="black" stroke="black" points="257.92,-33.61 247.39,-32.5 254.93,-39.94 257.92,-33.61"/>
</g>
<!-- node11 -->
<g id="node11" class="node">
<title>node11</title>
<ellipse fill="#fffbfb" stroke="black" cx="366.84" cy="-18" rx="68.49" ry="18"/>
<text text-anchor="middle" x="366.84" y="-14.3" font-family="Times,serif" font-size="14.00">(dynamic ...)</text>
</g>
<!-- node9&#45;&gt;node11 -->
<g id="edge13" class="edge">
<title>node9&#45;&gt;node11</title>
<path fill="none" stroke="black" d="M366.84,-71.7C366.84,-63.98 366.84,-54.71 366.84,-46.11"/>
<polygon fill="black" stroke="black" points="370.34,-46.1 366.84,-36.1 363.34,-46.1 370.34,-46.1"/>
</g>
</g>
</svg>
