<?xml version="1.0" encoding="UTF-8" standalone="no"?>
<!DOCTYPE svg PUBLIC "-//W3C//DTD SVG 1.1//EN"
 "http://www.w3.org/Graphics/SVG/1.1/DTD/svg11.dtd">
<!-- Generated by graphviz version 2.42.3 (0)
 -->
<!-- Title: Profile Pages: 1 -->
<svg width="750pt" height="620pt"
 viewBox="0.00 0.00 750.23 620.00" xmlns="http://www.w3.org/2000/svg" xmlns:xlink="http://www.w3.org/1999/xlink">
<g id="graph0" class="graph" transform="scale(1 1) rotate(0) translate(4 616)">
<title>Profile</title>
<polygon fill="white" stroke="transparent" points="-4,4 -4,-616 746.23,-616 746.23,4 -4,4"/>
<!-- node1 -->
<g id="node1" class="node">
<title>node1</title>
<ellipse fill="#ffffff" stroke="black" cx="441.84" cy="-594" rx="202.26" ry="18"/>
<text text-anchor="middle" x="441.84" y="-590.3" font-family="Times,serif" font-size="14.00">(checked&#45;procedure&#45;check&#45;and&#45;extract ...)</text>
</g>
<!-- node2 -->
<g id="node2" class="node">
<title>node2</title>
<ellipse fill="#ffffff" stroke="black" cx="441.84" cy="-522" rx="89.08" ry="18"/>
<text text-anchor="middle" x="441.84" y="-518.3" font-family="Times,serif" font-size="14.00">(profile&#45;thunk ...)</text>
</g>
<!-- node1&#45;&gt;node2 -->
<g id="edge1" class="edge">
<title>node1&#45;&gt;node2</title>
<path fill="none" stroke="black" d="M441.84,-575.7C441.84,-567.98 441.84,-558.71 441.84,-550.11"/>
<polygon fill="black" stroke="black" points="445.34,-550.1 441.84,-540.1 438.34,-550.1 445.34,-550.1"/>
</g>
<!-- node3 -->
<g id="node3" class="node">
<title>node3</title>
<ellipse fill="#ffffff" stroke="black" cx="338.84" cy="-450" rx="87.18" ry="18"/>
<text text-anchor="middle" x="338.84" y="-446.3" font-family="Times,serif" font-size="14.00">(bytes&#45;length ...)</text>
</g>
<!-- node2&#45;&gt;node3 -->
<g id="edge2" class="edge">
<title>node2&#45;&gt;node3</title>
<path fill="none" stroke="black" d="M417.69,-504.59C403.87,-495.2 386.35,-483.29 371.34,-473.09"/>
<polygon fill="black" stroke="black" points="373.07,-470.04 362.84,-467.31 369.14,-475.82 373.07,-470.04"/>
</g>
<!-- node4 -->
<g id="node4" class="node">
<title>node4</title>
<ellipse fill="#ffffff" stroke="black" cx="544.84" cy="-450" rx="101.28" ry="18"/>
<text text-anchor="middle" x="544.84" y="-446.3" font-family="Times,serif" font-size="14.00">(label&#45;addresses ...)</text>
</g>
<!-- node2&#45;&gt;node4 -->
<g id="edge3" class="edge">
<title>node2&#45;&gt;node4</title>
<path fill="none" stroke="black" d="M465.99,-504.59C479.71,-495.26 497.07,-483.46 512.01,-473.31"/>
<polygon fill="black" stroke="black" points="514.18,-476.07 520.48,-467.55 510.25,-470.28 514.18,-476.07"/>
</g>
<!-- node5 -->
<g id="node5" class="node">
<title>node5</title>
<ellipse fill="#ffffff" stroke="black" cx="338.84" cy="-378" rx="64.99" ry="18"/>
<text text-anchor="middle" x="338.84" y="-374.3" font-family="Times,serif" font-size="14.00">(temp12 ...)</text>
</g>
<!-- node3&#45;&gt;node5 -->
<g id="edge4" class="edge">
<title>node3&#45;&gt;node5</title>
<path fill="none" stroke="black" d="M338.84,-431.7C338.84,-423.98 338.84,-414.71 338.84,-406.11"/>
<polygon fill="black" stroke="black" points="342.34,-406.1 338.84,-396.1 335.34,-406.1 342.34,-406.1"/>
</g>
<!-- node6 -->
<g id="node6" class="node">
<title>node6</title>
<ellipse fill="#ffffff" stroke="black" cx="544.84" cy="-378" rx="68.49" ry="18"/>
<text text-anchor="middle" x="544.84" y="-374.3" font-family="Times,serif" font-size="14.00">(lifted/20 ...)</text>
</g>
<!-- node4&#45;&gt;node6 -->
<g id="edge5" class="edge">
<title>node4&#45;&gt;node6</title>
<path fill="none" stroke="black" d="M544.84,-431.7C544.84,-423.98 544.84,-414.71 544.84,-406.11"/>
<polygon fill="black" stroke="black" points="548.34,-406.1 544.84,-396.1 541.34,-406.1 548.34,-406.1"/>
</g>
<!-- node7 -->
<g id="node7" class="node">
<title>node7</title>
<ellipse fill="#ffffff" stroke="black" cx="338.84" cy="-306" rx="91.78" ry="18"/>
<text text-anchor="middle" x="338.84" y="-302.3" font-family="Times,serif" font-size="14.00">(bytes&#45;append ...)</text>
</g>
<!-- node5&#45;&gt;node7 -->
<g id="edge6" class="edge">
<title>node5&#45;&gt;node7</title>
<path fill="none" stroke="black" d="M338.84,-359.7C338.84,-351.98 338.84,-342.71 338.84,-334.11"/>
<polygon fill="black" stroke="black" points="342.34,-334.1 338.84,-324.1 335.34,-334.1 342.34,-334.1"/>
</g>
<!-- node8 -->
<g id="node8" class="node">
<title>node8</title>
<ellipse fill="#fff0f0" stroke="black" cx="536.84" cy="-306" rx="62.29" ry="18"/>
<text text-anchor="middle" x="536.84" y="-302.3" font-family="Times,serif" font-size="14.00">(lifted/1 ...)</text>
</g>
<!-- node6&#45;&gt;node8 -->
<g id="edge7" class="edge">
<title>node6&#45;&gt;node8</title>
<path fill="none" stroke="black" d="M542.86,-359.7C541.98,-351.98 540.92,-342.71 539.94,-334.11"/>
<polygon fill="black" stroke="black" points="543.41,-333.64 538.79,-324.1 536.45,-334.44 543.41,-333.64"/>
</g>
<!-- node9 -->
<g id="node9" class="node">
<title>node9</title>
<ellipse fill="#ffffff" stroke="black" cx="679.84" cy="-306" rx="62.29" ry="18"/>
<text text-anchor="middle" x="679.84" y="-302.3" font-family="Times,serif" font-size="14.00">(lifted/1 ...)</text>
</g>
<!-- node6&#45;&gt;node9 -->
<g id="edge8" class="edge">
<title>node6&#45;&gt;node9</title>
<path fill="none" stroke="black" d="M574.46,-361.64C594.21,-351.4 620.34,-337.85 641.64,-326.81"/>
<polygon fill="black" stroke="black" points="643.48,-329.8 650.74,-322.09 640.26,-323.58 643.48,-329.8"/>
</g>
<!-- node7&#45;&gt;node7 -->
<g id="edge9" class="edge">
<title>node7&#45;&gt;node7</title>
<path fill="none" stroke="black" d="M400.28,-319.36C426.31,-320.37 448.48,-315.91 448.48,-306 448.48,-297.4 431.8,-292.91 410.4,-292.53"/>
<polygon fill="black" stroke="black" points="410.24,-289.03 400.28,-292.64 410.32,-296.03 410.24,-289.03"/>
</g>
<!-- node10 -->
<g id="node10" class="node">
<title>node10</title>
<ellipse fill="#ffffff" stroke="black" cx="135.84" cy="-162" rx="135.68" ry="18"/>
<text text-anchor="middle" x="135.84" y="-158.3" font-family="Times,serif" font-size="14.00">(integer&#45;&gt;integer&#45;bytes ...)</text>
</g>
<!-- node7&#45;&gt;node10 -->
<g id="edge10" class="edge">
<title>node7&#45;&gt;node10</title>
<path fill="none" stroke="black" d="M315.15,-288.43C278.83,-263.02 209.28,-214.37 168.29,-185.7"/>
<polygon fill="black" stroke="black" points="170.2,-182.77 160,-179.9 166.19,-188.5 170.2,-182.77"/>
</g>
<!-- node11 -->
<g id="node11" class="node">
<title>node11</title>
<ellipse fill="#ffffff" stroke="black" cx="338.84" cy="-234" rx="51.19" ry="18"/>
<text text-anchor="middle" x="338.84" y="-230.3" font-family="Times,serif" font-size="14.00">(send ...)</text>
</g>
<!-- node7&#45;&gt;node11 -->
<g id="edge11" class="edge">
<title>node7&#45;&gt;node11</title>
<path fill="none" stroke="black" d="M332.92,-287.7C332.13,-279.98 331.9,-270.71 332.24,-262.11"/>
<polygon fill="black" stroke="black" points="335.74,-262.32 332.94,-252.1 328.75,-261.84 335.74,-262.32"/>
</g>
<!-- node12 -->
<g id="node12" class="node">
<title>node12</title>
<ellipse fill="#fffbfb" stroke="black" cx="679.84" cy="-234" rx="48.19" ry="18"/>
<text text-anchor="middle" x="679.84" y="-230.3" font-family="Times,serif" font-size="14.00">(new ...)</text>
</g>
<!-- node9&#45;&gt;node12 -->
<g id="edge12" class="edge">
<title>node9&#45;&gt;node12</title>
<path fill="none" stroke="black" d="M679.84,-287.7C679.84,-279.98 679.84,-270.71 679.84,-262.11"/>
<polygon fill="black" stroke="black" points="683.34,-262.1 679.84,-252.1 676.34,-262.1 683.34,-262.1"/>
</g>
<!-- node15 -->
<g id="node13" class="node">
<title>node15</title>
<ellipse fill="#ff0000" stroke="black" cx="257.84" cy="-18" rx="48.19" ry="18"/>
<text text-anchor="middle" x="257.84" y="-14.3" font-family="Times,serif" font-size="14.00">(eval ...)</text>
</g>
<!-- node10&#45;&gt;node15 -->
<g id="edge13" class="edge">
<title>node10&#45;&gt;node15</title>
<path fill="none" stroke="black" d="M150.55,-143.87C172.13,-118.76 212.44,-71.85 237.03,-43.22"/>
<polygon fill="black" stroke="black" points="239.96,-45.18 243.82,-35.31 234.65,-40.62 239.96,-45.18"/>
</g>
<!-- node11&#45;&gt;node7 -->
<g id="edge14" class="edge">
<title>node11&#45;&gt;node7</title>
<path fill="none" stroke="black" d="M344.73,-252.1C345.54,-259.79 345.77,-269.05 345.44,-277.67"/>
<polygon fill="black" stroke="black" points="341.95,-277.48 344.75,-287.7 348.93,-277.96 341.95,-277.48"/>
</g>
<!-- node13 -->
<g id="node14" class="node">
<title>node13</title>
<ellipse fill="#ffffff" stroke="black" cx="380.84" cy="-162" rx="91.78" ry="18"/>
<text text-anchor="middle" x="380.84" y="-158.3" font-family="Times,serif" font-size="14.00">(bytes&#45;append ...)</text>
</g>
<!-- node11&#45;&gt;node13 -->
<g id="edge15" class="edge">
<title>node11&#45;&gt;node13</title>
<path fill="none" stroke="black" d="M349,-216.05C353.88,-207.92 359.84,-198 365.27,-188.94"/>
<polygon fill="black" stroke="black" points="368.33,-190.65 370.47,-180.28 362.33,-187.05 368.33,-190.65"/>
</g>
<!-- node14 -->
<g id="node15" class="node">
<title>node14</title>
<ellipse fill="#ffffff" stroke="black" cx="343.84" cy="-90" rx="71.49" ry="18"/>
<text text-anchor="middle" x="343.84" y="-86.3" font-family="Times,serif" font-size="14.00">(unsigned ...)</text>
</g>
<!-- node13&#45;&gt;node14 -->
<g id="edge16" class="edge">
<title>node13&#45;&gt;node14</title>
<path fill="none" stroke="black" d="M371.88,-144.05C367.63,-136.01 362.45,-126.2 357.7,-117.23"/>
<polygon fill="black" stroke="black" points="360.74,-115.48 352.97,-108.28 354.55,-118.75 360.74,-115.48"/>
</g>
<!-- node14&#45;&gt;node15 -->
<g id="edge17" class="edge">
<title>node14&#45;&gt;node15</title>
<path fill="none" stroke="black" d="M323.46,-72.41C311.97,-63.06 297.46,-51.25 285.02,-41.12"/>
<polygon fill="black" stroke="black" points="287.15,-38.35 277.19,-34.75 282.73,-43.78 287.15,-38.35"/>
</g>
</g>
</svg>
